/* XPM */
static char *_59c9de31c404705c719674123bba3c4iXhumBwvmb8T2Yt7[] = {
/* columns rows colors chars-per-pixel */
"32 32 132 2 ",
"   c None",
".  c #542E16",
"X  c #542F18",
"o  c #563119",
"O  c #5B351D",
"+  c #5C381E",
"@  c #5F3A21",
"#  c #633D24",
"$  c #644126",
"%  c #684027",
"&  c #674827",
"*  c #674229",
"=  c #6B452B",
"-  c #674829",
";  c #6C4A2D",
":  c #714A2F",
">  c #6D4B30",
",  c #734D33",
"<  c #6F5032",
"1  c #765136",
"2  c #785136",
"3  c #775239",
"4  c #7B553A",
"5  c #7D593D",
"6  c #7E5B40",
"7  c #815B3E",
"8  c #835D41",
"9  c #866144",
"0  c #8A6446",
"q  c #876348",
"w  c #8C6649",
"e  c #8D6649",
"r  c #8C6648",
"t  c #8C664A",
"y  c #8D674B",
"u  c #8E674A",
"i  c #8F674A",
"p  c #8C6448",
"a  c #8B6649",
"s  c #8D684A",
"d  c #8D684B",
"f  c #8E684A",
"g  c #8F684A",
"h  c #8F684C",
"j  c #8F694C",
"k  c #8F694D",
"l  c #8E6A4E",
"z  c #8F684A",
"x  c #90684B",
"c  c #916A4B",
"v  c #90694C",
"b  c #916A4C",
"n  c #906A4D",
"m  c #916A4D",
"M  c #926B4D",
"N  c #926B4E",
"B  c #926C4D",
"V  c #936D4E",
"C  c #936D4F",
"Z  c #946E4F",
"A  c #956F4F",
"S  c #916B4D",
"D  c #8F6C51",
"F  c #8E6E51",
"G  c #8F6E52",
"H  c #8F6F53",
"J  c #906D52",
"K  c #946D50",
"L  c #946F50",
"P  c #956F50",
"I  c #956F51",
"U  c #906F54",
"Y  c #956F50",
"T  c #967151",
"R  c #957052",
"E  c #977053",
"W  c #977153",
"Q  c #977252",
"!  c #977253",
"~  c #917054",
"^  c #937054",
"/  c #937055",
"(  c #917156",
")  c #947155",
"_  c #957256",
"`  c #957356",
"'  c #967357",
"]  c #967253",
"[  c #987354",
"{  c #997355",
"}  c #987454",
"|  c #997456",
" . c #9A7456",
".. c #9A7556",
"X. c #9A7457",
"o. c #9A7557",
"O. c #9B7557",
"+. c #9A7656",
"@. c #9B7657",
"#. c #997455",
"$. c #957459",
"%. c #96765A",
"&. c #9B7758",
"*. c #9B7758",
"=. c #9D7859",
"-. c #9E785A",
";. c #9D7A5A",
":. c #9E7A5A",
">. c #9E7B5B",
",. c #9F7B5B",
"<. c #98785C",
"1. c #99795C",
"2. c #99795D",
"3. c #997A5D",
"4. c #99795E",
"5. c #9C7A5E",
"6. c #9F7C5C",
"7. c #9E7A5B",
"8. c #A07D5C",
"9. c #A07D5D",
"0. c #A17D5D",
"q. c #A17E5D",
"w. c #A17E5E",
"e. c #A27E5E",
"r. c #A27F5E",
"t. c #A37F5F",
"y. c #A17D5D",
"u. c #9F7F63",
"i. c #A37F60",
"p. c #A3805F",
"a. c #A48060",
"s. c #A48060",
/* pixels */
"                        6 6 4 6 3 6 3 3                         ",
"                  6 6 6 G %.$.u.u.$.u.F 5 5 5                   ",
"                4 $.u.( 3 * = > 3 < > 3 G 3.G 1                 ",
"                4 %.U , > , 3 3 3 3 3 3 3 H U ,                 ",
"                , G u._ 8 6 6 8 8 6 8 q J / q =                 ",
"                # 1 4 5 D _ _ _ $.( _ q , = # .                 ",
"                  # # > 4 5 4 4 4 2 3 , # X .                   ",
"                  = , 8 5 4 4 4 1 , > = = O .                   ",
"                  = , 8 u k k t 8 8 6 , = O .                   ",
"                  = , 8 t h h h 8 8 6 , > # .                   ",
"                = 4 4 4 8 K h u h 8 8 1 = # # O                 ",
"            = , 7 9 9 8 5 5 4 5 6 , # : 2 8 2 = # X             ",
"          , 5 8 p p x C v v h u 8 8 8 8 8 8 4 2 : # O           ",
"          , 4 8 i C W  . .*.{ { K k m 8 p 8 8 7 : # #           ",
"      , 7 v v u 9 9 v  .*.*.{ I m h h h p 7 , : , 1 , # o       ",
"      , 8 I { { @.=.! u 9 u u 9 8 8 7 4 4 8 8 8 7 7 , = O       ",
"    , u I I  .;.;.8.r.r.>.r.>.;.X.E I N c c 0 0 9 7 2 : = +     ",
"    , u _ { ;.6.r.r.r.r.r.r.r.r.8.E E I A r 0 r 9 7 7 2 = +     ",
"    , h @.=.6.6.r.y.t.a.p.p.r.r.8.@.! ! A c r r 9 7 7 2 : @     ",
"  = , 8 I 8.6.p.i.i.i.a.a.a.a.i.8.8.@.T A A c r 0 0 7 , # @ @   ",
"# = 4 4 9 }  .;.=.r.i.i.a.a.a.r.y.8.@.! A C c 7 7 7 7 : = # @ O ",
"# 4 u u k v B j v {  .{  . .} } ! I B r 0 0 8 4 7 : : : 7 2 # . ",
"# , 8 9 g k { =. .J v B x v B j i g 0 9 7 7 8 r 7 7 7 7 7 # @ . ",
"# , 4 7 8 9 0 B  .I { r.8.8.>.B x  .! C c 7 7 8 7 : : # # # O . ",
"# , p 7 9 c p p 0 a g B *.} 0 9 7 7 0 9 4 2 1 1 : : 7 : % < # . ",
"  = : 4 8 c N i p x k a s 0 9 g 0 7 7 7 7 9 8 2 7 7 4 = @ @ +   ",
"    # 4 7 4 7 4 8 u v h 0 0 v B 0 0 8 7 0 7 5 ; # % % % $ o     ",
"      # : 4 2 4 4 4 4 5 4 2 2 2 2 , : : : : - & % & & # O       ",
"        O # ; , 4 4 4 3 1 1 1 1 , , 2 : < ; - ; < & O o         ",
"            O # > > , 3 4 4 3 3 2 2 2 2 < < < & + X             ",
"                o o @ ; > > ; ; ; ; ; < ; @ X X                 ",
"                      X . X X X o . . . X                       "
};
