/* XPM */
static char *_e8e63721cb54c4193d20db35dc92a53ZsH7GbssnhUgERUp[] = {
/* columns rows colors chars-per-pixel */
"32 32 138 2 ",
"   c None",
".  c #4F2B16",
"X  c #522D16",
"o  c #532F19",
"O  c #55321C",
"+  c #59351D",
"@  c #5C381F",
"#  c #563621",
"$  c #593721",
"%  c #5E3C24",
"&  c #5D3F29",
"*  c #603E24",
"=  c #5E412C",
"-  c #5E4430",
";  c #624126",
":  c #64452B",
">  c #68472B",
",  c #67482D",
"<  c #694A2E",
"1  c #624733",
"2  c #664A34",
"3  c #6B4D32",
"4  c #674E3A",
"5  c #694F39",
"6  c #6E5134",
"7  c #66513E",
"8  c #6B523C",
"9  c #725436",
"0  c #735639",
"q  c #75593A",
"w  c #795D3E",
"e  c #7C613F",
"r  c #7D613F",
"t  c #7C603F",
"y  c #7B603F",
"u  c #675440",
"i  c #6A5642",
"p  c #6F5841",
"a  c #6C5946",
"s  c #6D5C49",
"d  c #735941",
"f  c #715A43",
"g  c #775B40",
"h  c #765A41",
"j  c #775B41",
"k  c #755A43",
"l  c #755B44",
"z  c #775D45",
"x  c #745C46",
"c  c #7A5F40",
"v  c #7B5F40",
"b  c #7B5F41",
"n  c #795D43",
"m  c #7C5F41",
"M  c #735F49",
"N  c #755F49",
"B  c #7A6040",
"V  c #7B6040",
"C  c #7A6140",
"Z  c #7B6041",
"A  c #7B6141",
"S  c #7C6040",
"D  c #7C6140",
"F  c #7D6140",
"G  c #7C6041",
"H  c #7D6041",
"J  c #7C6141",
"K  c #7D6141",
"L  c #7D6240",
"P  c #7D6241",
"I  c #7E6241",
"U  c #7E6341",
"Y  c #7F6341",
"T  c #7D6143",
"R  c #7D6242",
"E  c #7D6342",
"W  c #7C6243",
"Q  c #7D6243",
"!  c #7D6343",
"~  c #7E6243",
"^  c #7F6243",
"/  c #7E6343",
"(  c #7F6343",
")  c #7C6144",
"_  c #7E6344",
"`  c #7E6345",
"'  c #7F6444",
"]  c #7F6546",
"[  c #7C6241",
"{  c #75604A",
"}  c #74614B",
"|  c #75614B",
" . c #76634D",
".. c #77634D",
"X. c #74614D",
"o. c #7B634C",
"O. c #7B654F",
"+. c #7C644D",
"@. c #7C664E",
"#. c #776552",
"$. c #796750",
"%. c #7A6751",
"&. c #7C6650",
"*. c #7D6650",
"=. c #796753",
"-. c #7A6953",
";. c #7C6A54",
":. c #7D6C56",
">. c #7F6D56",
",. c #7A6955",
"<. c #7D6D5A",
"1. c #806344",
"2. c #806544",
"3. c #806545",
"4. c #826545",
"5. c #816646",
"6. c #826646",
"7. c #826747",
"8. c #836747",
"9. c #826847",
"0. c #816648",
"q. c #836748",
"w. c #836848",
"e. c #836949",
"r. c #856A4A",
"t. c #856B4A",
"y. c #876B4B",
"u. c #876C4A",
"i. c #876C4D",
"p. c #876E4D",
"a. c #886E4D",
"s. c #886E4E",
"d. c #896F4E",
"f. c #8A7051",
"g. c #8D7354",
"h. c #80715F",
"j. c #907858",
"k. c #937C5C",
/* pixels */
"                      6 9 q 9 9 9 9 q 9 9                       ",
"            9 q u.4.w w u.y.4.w w Y y.4.9 6 9 q 3 >             ",
"        9 9 1.j.k.g.4.0 u.d.8.1.H 4.d.y.9 9 1.4.4.9 > *         ",
"      H y.w w y.f.4.q 6 w w w q 9 w r r 9 6 9 H 4.w 9 9 6       ",
"    q y.i.0 9 1.9.H q 9 y H w q q r r r 9 9 q H t 0 q 1.w >     ",
"  q H 1.w 9 0 4.2.H q 0 w H H w 9 w r r q 9 w t H 0 q H 1.0 3   ",
"< 1.4.q q 0 q 4.4.t q 0 t H w w r r r r q q r r y q q w w 1.q * ",
"3 q w q w q q 1.4.t q q w B t w r r r r q q q r B q w w w 1.0 * ",
"* 9 q q q q g m w q 0 0 w B n w t H U U 0 q 9 q y q q B c H 6 % ",
"* 3 8 0 0 d k z *.+.h 0 w n w y H U U t 0 q ..$.k f 0 8 8 8 1 + ",
"* 5 N +.X.=.;.;.<.i.+.h w w w w y H t t B -.:.-.=. .} } } M 5 + ",
"$ * : 2 2 3 3 6 f p 6 6 w w n w y U U y 6 6 8 0 2 2 2 , 1 , % O ",
"+ * > > > * ; < , , 3 0 w w w w H U B H q 3 , , , , , , : > % O ",
"* 3 0 0 9 6 9 w q 9 6 0 w w w g U U U B 9 0 9 y y y 9 0 0 0 < + ",
"+ 3 0 0 0 9 0 w g 0 6 0 w w q w ! U U y 9 q 0 y y 0 q 9 9 0 < + ",
"+ > 0 0 0 0 q w g q 0 0 w q q w B H B y 0 0 y y y 0 9 9 0 0 < + ",
"+ < q 0 0 0 q q q 0 0 0 q q 0 0 q q w w q q q w q q 9 9 9 0 , + ",
"+ < 9 0 0 0 q q 0 0 0 6 6 8 C >.h.c 0 q q q w w q 0 9 9 9 9 , + ",
"+ < 0 9 0 0 0 q 0 0 0 0 6 6 8 f f 8 5 9 q q q q q 9 6 6 6 9 , + ",
"+ < 0 6 0 9 0 q 0 9 6 6 6 , 2 6 8 1 , 3 6 q q q q 9 6 6 6 6 , O ",
"+ : 9 9 6 0 0 0 6 6 6 6 3 - = = ; & : 6 6 0 0 0 q 6 6 6 6 6 : O ",
"X % : : , 2 2 3 { q 8 6 q 6 < , > 3 6 0 6 6 k M 2 , , - , = % o ",
"+ 2 }  .X.=.;.-.,.;.{ 9 0 q 9 6 6 0 0 q q } -.$.$.#.} } } } 2 + ",
"O = 4 7 8 8 i p M 8 3 : 6 q 9 6 6 0 0 6 : 2 8 p 7 7 7 2 7 2 = O ",
"X + @ = = * * ; = = ; 3 9 9 6 6 6 9 0 6 3 ; = = ; % % = @ ; + X ",
"O : 6 6 3 > < 6 6 2 < < 9 9 6 6 3 6 9 6 < < 6 8 q 6 < 3 3 < ; O ",
"O > 6 6 6 < 3 6 6 6 2 2 6 9 6 < < 6 6 6 < 3 8 q 0 6 < 3 < 3 ; O ",
"O = 2 6 8 8 8 6 6 8 8 4 6 7 2 1 1 7 8 8 8 6 4 4 6 4 4 2 2 2 % O ",
"$ u ,.#.$.-.-.-.<.<.<.<.<.<.<.#. .<.<.<.<.<.<.<.,.=.#.#.=.=.i $ ",
"# - u 7 7 7 u a a a a a s a a i i a } } s a a a a i u u 7 7 - O ",
"# - 7 7 u u u u i i i a a a i u 7 a a a a i a u u u u 4 u 4 = O ",
". o # + # # # # # # # # # # $ # # # # # # # # # # # # # # # o . "
};
