/* XPM */
static char *_36ac0fd540849c6ec46bcb498554cc4Ahl0kafWRJbjdPHc[] = {
/* columns rows colors chars-per-pixel */
"32 32 177 2 ",
"   c None",
".  c #271E2E",
"X  c #282030",
"o  c #292131",
"O  c #292132",
"+  c #282232",
"@  c #292232",
"#  c #282332",
"$  c #292332",
"%  c #292333",
"&  c #292334",
"*  c #2A2334",
"=  c #292434",
"-  c #2A2435",
";  c #2B2435",
":  c #2B2535",
">  c #2B2536",
",  c #2A2636",
"<  c #2A2736",
"1  c #2C2537",
"2  c #2D2638",
"3  c #2E273A",
"4  c #2F273A",
"5  c #2E283A",
"6  c #2F283A",
"7  c #2F283B",
"8  c #2D2B3B",
"9  c #2B2E3C",
"0  c #30293B",
"q  c #362C39",
"w  c #362C3A",
"e  c #30293C",
"r  c #31293D",
"t  c #312A3D",
"y  c #322B3F",
"u  c #332B3F",
"i  c #372F3C",
"p  c #2D323F",
"a  c #332B40",
"s  c #332C40",
"d  c #342C41",
"f  c #352D43",
"g  c #362D43",
"h  c #362E43",
"j  c #362E44",
"k  c #392E46",
"l  c #382F46",
"z  c #3A2E47",
"x  c #3B2F48",
"c  c #2D3743",
"v  c #3E3747",
"b  c #393148",
"n  c #393049",
"m  c #3A3048",
"M  c #3B3048",
"N  c #3A3148",
"B  c #3A3049",
"V  c #3B3049",
"C  c #3A3149",
"Z  c #3B3149",
"A  c #393249",
"S  c #3A3249",
"D  c #3B314A",
"F  c #38334B",
"G  c #3B324A",
"H  c #3B324B",
"J  c #3B334B",
"K  c #3C314A",
"L  c #3C324B",
"P  c #3C334B",
"I  c #3B344B",
"U  c #3B364D",
"Y  c #3B374D",
"T  c #3C354C",
"R  c #3C354D",
"E  c #3C374E",
"W  c #3C384F",
"Q  c #3A3D51",
"!  c #2E434D",
"~  c #32424E",
"^  c #3D434E",
"/  c #3E4056",
"(  c #3E4156",
")  c #3E4257",
"_  c #304851",
"`  c #354A56",
"'  c #3E4458",
"]  c #3F4458",
"[  c #374958",
"{  c #394858",
"}  c #3B495A",
"|  c #3F495D",
" . c #3F4B5E",
".. c #325058",
"X. c #32575D",
"o. c #38515D",
"O. c #3A515E",
"+. c #32585D",
"@. c #33585E",
"#. c #375661",
"$. c #385560",
"%. c #385661",
"&. c #3E5765",
"*. c #375B64",
"=. c #385963",
"-. c #395A64",
";. c #385C64",
":. c #3A5D65",
">. c #366166",
",. c #366468",
"<. c #36666A",
"1. c #3F6F76",
"2. c #3B7175",
"3. c #3F737A",
"4. c #4E434D",
"5. c #4F475A",
"6. c #404C5F",
"7. c #415059",
"8. c #40525F",
"9. c #404D60",
"0. c #415667",
"q. c #415767",
"w. c #595160",
"e. c #436170",
"r. c #466F7B",
"t. c #44717D",
"y. c #42787E",
"u. c #796B6D",
"i. c #7B726F",
"p. c #716C72",
"a. c #647176",
"s. c #697C7D",
"d. c #437B80",
"f. c #467881",
"g. c #487E87",
"h. c #468489",
"j. c #46868B",
"k. c #4A848C",
"l. c #518488",
"z. c #538D8F",
"x. c #479797",
"c. c #4C9498",
"v. c #469899",
"b. c #499A9A",
"n. c #4A9B9B",
"m. c #4D9C9C",
"M. c #4D9D9F",
"N. c #53999C",
"B. c #4E9EA0",
"V. c #4DA4A5",
"C. c #4FA4A5",
"Z. c #4DA5A6",
"A. c #4FA5A6",
"S. c #4FA6A6",
"D. c #4FA6A7",
"F. c #50A6A6",
"G. c #50A6A7",
"H. c #50A7A7",
"J. c #53A7A7",
"K. c #50A7A8",
"L. c #50A8A8",
"P. c #50A8A9",
"I. c #818D86",
"U. c #81ACA6",
"Y. c #AEA8A7",
"T. c #C7B5A5",
"R. c #CAB7A5",
"E. c #C3B9A9",
"W. c #C0BDB7",
"Q. c #A1C1B5",
"!. c #A3C6BE",
"~. c #D4C3AD",
"^. c #D9C5AF",
"/. c #D6C5B2",
"(. c #DBC9B4",
"). c #D9CDB8",
"_. c #E4DDCB",
/* pixels */
"                L S L                                           ",
"                S L S L L S S                                   ",
"                    S L S L S L                                 ",
"                      S L S L S S L                             ",
"                        S L S L L S L                           ",
"                          S L S S L S                           ",
"                          L S L L S L L S                       ",
"                    ,.{ Y Y I S S L S E } ,.! % % &             ",
"            % % % - 9 ..,.>.O.] ) ) 6.f.1.c # % % % & 1 1       ",
"      % % & % % % % % = = - -.h.h.j.d.~ O & 4 4 4 1 5 d L L S   ",
"  d 5 - # # # % % - 5 5 7 7 5 4 4 4 4 4 u x S S S L S L L S L S ",
"S S S d t t t t t g S L H H H H H H S L x x S x L S L S S L S L ",
"L S S L L L L L L S M S x x S x S x H [ #.%.%.O.Q               ",
"  L L S L S x   =.-.;.*.*.:.a.p.v 4.i.I.s.8.3.x.                ",
"                n.n.n.n.v.m.!.W.w.u./._.Y.5.t.K.                ",
"                F.F.A.F.A.F.Q.).T.R.^.(./.E.U.A.                ",
"                c.c.c.c.c.c.N.l.^ q i q 7.z.                    ",
"                v E L E L E Y S 7 - % & - -                     ",
"                H S S L S L S L S s & % % % %                   ",
"            L S S H L S L S L S S a % # % % % %                 ",
"          L S L H S L S S L S L S x t 4 # % % %                 ",
"          S L S S L S L L S L S S H S 5 # % % %                 ",
"          L L S L S L S S L S L S L S 5 # % % %                 ",
"      S S L S L S L S L L S L S H L S 4 # % % %                 ",
"      S L H S x S x x S L S S L H v M 5 % % % %                 ",
"      L S L / 9.6.9.6.E x x S H H S d 1 % % % %                 ",
"        x E g.F.A.F.B.r.0.0.Q x g t % % % % % %                 ",
"            P.A.C.C.A.A.K.C.k.q.5 . % % % % % =                 ",
"            A.C.C.C.C.C.C.C.P.B.y.` = # % O % =                 ",
"                  F.A.A.A.A.C.F.  2.X.X.+.X.~                   ",
"                    6.6. .9.e.      c c c c                     ",
"                    x S x           % % %                       "
};
