/* XPM */
static char *_3031e3a2d9e4c52ab2c526a13d06d88eGJTSuQXvImVBj5D[] = {
/* columns rows colors chars-per-pixel */
"32 32 94 2 ",
"   c #563D2C",
".  c #5A3F2E",
"X  c #5A412E",
"o  c #5C4534",
"O  c #5F4837",
"+  c #5E4B3B",
"@  c #614936",
"#  c #614D3C",
"$  c #63503F",
"%  c #5F4E41",
"&  c #5E5144",
"*  c #5F544A",
"=  c #624F40",
"-  c #645344",
";  c #685645",
":  c #6B5847",
">  c #63564A",
",  c #64594C",
"<  c #6B5B4B",
"1  c #725F4F",
"2  c #655E55",
"3  c #6B5F52",
"4  c #665F58",
"5  c #715F50",
"6  c #666057",
"7  c #6D6254",
"8  c #676159",
"9  c #6B645B",
"0  c #6F6A5E",
"q  c #726253",
"w  c #746659",
"e  c #736A5D",
"r  c #79695C",
"t  c #78705F",
"y  c #6E6760",
"u  c #6E6961",
"i  c #736D63",
"p  c #7D6E61",
"a  c #747063",
"s  c #747164",
"d  c #747065",
"f  c #757265",
"g  c #757166",
"h  c #757367",
"j  c #787161",
"k  c #797363",
"l  c #787264",
"z  c #787467",
"x  c #747068",
"c  c #757169",
"v  c #76756A",
"b  c #77756A",
"n  c #77746B",
"m  c #7A7469",
"M  c #7B776B",
"N  c #7D756B",
"B  c #78756C",
"V  c #78776C",
"C  c #78776D",
"Z  c #7A766C",
"A  c #7A776E",
"S  c #7D786A",
"D  c #7C7A6A",
"F  c #79786D",
"G  c #7C786D",
"H  c #7C7B6D",
"J  c #7D796F",
"K  c #7E7C6E",
"L  c #7E7D6E",
"P  c #7F7D6F",
"I  c #7C7A70",
"U  c #7C7B71",
"Y  c #7E7B70",
"T  c #7E7D71",
"R  c #7E7C72",
"E  c #7F7D72",
"W  c #807C6E",
"Q  c #807C6F",
"!  c #837B71",
"~  c #817D71",
"^  c #817E70",
"/  c #827E71",
"(  c #808076",
")  c #848174",
"_  c #888477",
"`  c #84827A",
"'  c #85837A",
"]  c #878479",
"[  c #89867C",
"{  c #89887C",
"}  c #8B8A82",
"|  c #908D83",
" . c #919085",
".. c #949389",
/* pixels */
"w q < - - ; - # + + o + & - - & + $ & & + O $ - ; < < > ; < q < ",
"! N i ; i g g g b z 9 0 7 0 9 7 - e e e e e F F F F K i < p K w ",
"} ( M < g B b b b C C C C C F Z 7 R R R R R I Y K I I i < Z H r ",
"' R M < d i c c x x x x g d c D 7 b M b b x x c x x x 9 < m ! w ",
"' Y M - 2 2 4 2 2 8 6 8 6 8 2 8 - 9 9 9 9 6 2 2 4 4 8 , < n Y w ",
"' H N o + - > - - ; - + # # + + o # - - - $ ; ; ; > ; # < Z Y w ",
"' H M - 9 g g g h d g : g g d d g g g h h < D D N F D e 3 Z Y w ",
"' Y M ; e b b b b b z 7 b b B B b b z C C 7 K ) Q K ^ i 5 Y R w ",
"' Y Z ; 0 Z Z F Z I F w K Z Z Z Z F N F Y w R Y ^ ^ R g 7 Q R w ",
"' Y Z # 2 8 8 8 8 8 2 > 9 8 8 9 9 8 9 8 9 < i 0 e 0 0 7 < R R w ",
"' Y m o + - - - - + o . + - - - > > > ; - X = ; - ; - + < K R w ",
"' ! m # < 0 9 9 0 7 w w e e e < j g a g e 0 0 0 e 0 i 7 < D K w ",
"' Y N # 7 i i e 0 e s h z h M e K Y ^ F Z B B B n Z m w < H H w ",
"G i w # e c c g b g d b M D K e ^ ^ R R Y A I I Y Z H i ; i i q ",
"p r 1 # , 2 2 4 6 6 4 8 6 8 9 3 7 8 9 9 9 y y 9 4 4 4 3 ; 1 r 5 ",
"..} _ @ + * * & & & + + + % % o = > , , > - & # O O @ . 5 [ [ Q ",
" .{ ) # < 7 9 7 q 3 + 7 3 7 7 7 3 9 w 9 7 7 ; < i 0 9 < q ] { p ",
"{ { ) : e V V V b Z 3 Z b B b C Z A I Z B H i 7 d e e , q ] { p ",
" .{ ) : f K K H Y R i R I R H U I Y Y I R R V 7 i u i 7 q ' ] r ",
" .{ ) - 9 u i u i i 7 u u i s s x x x x i g e * , , , % q ( ] w ",
"{ { _ $ , 6 9 8 8 7 ; 9 9 0 0 0 u 4 7 3 3 2 $ O * > % + 1 ' / r ",
"..{ ) O O $ * - - > + ; > ; - - - - - < < > ; - > ; - o 1 ^ ' w ",
" .{ Q $ q t j t j j i a t t t t 5 w Z B g F M b Z b Z i q ^ ^ r ",
"{ { Q : t ) K L ) Q Q Q L L L L M l K F F F B C B Z Z i q / ^ w ",
" .{ Q : Q Q Q Q ( Q ) Q ) ) ) { Q i M g c i x x d d i 9 5 K Q w ",
" ._ ! $ q w e i e e t a f a f t e 7 4 6 4 4 4 2 2 2 2 * 7 K ) r ",
"{ _ Q @ - ; < 7 3 3 7 7 7 7 7 3 < # # # # @ O O + + O o 5 ^ Q w ",
"r q : # $ : < 7 ; ; 9 7 7 7 7 7 1 M z c M i r g i g g u ; < q < ",
"{ [ K ; 9 e h H e e g b b C C F b D B D Z l i G n n c y 5 Q ^ w ",
" .{ Q - 0 e s V e i F Z F F C Z Z M b M H i i H Z n Z w 5 D ! w ",
"| [ ) + * * * 2 > - 8 8 9 9 9 8 2 8 2 2 2 2 2 y 4 2 2 * < Q H w ",
"| _ R X   X X o X X + - + + + + + & % + o .   o . o + @ < G G q "
};
