/* XPM */
static char *e5277be1625f43bf9005eef91140050aVEEDfoCtnpAgpm9C[] = {
/* columns rows colors chars-per-pixel */
"63 55 148 2 ",
"   c None",
".  c #4F2A13",
"X  c #512C14",
"o  c #532F18",
"O  c #55331D",
"+  c #58351F",
"@  c #563621",
"#  c #583621",
"$  c #573A25",
"%  c #593A24",
"&  c #5B3E2B",
"*  c #5C412E",
"=  c #5D4533",
"-  c #5F4937",
";  c #5F4938",
":  c #604A37",
">  c #614E3C",
",  c #63503E",
"<  c #5D4F44",
"1  c #5D5044",
"2  c #5F554A",
"3  c #5F584E",
"4  c #635343",
"5  c #61554A",
"6  c #63594E",
"7  c #685C4E",
"8  c #635C54",
"9  c #665F58",
"0  c #656057",
"q  c #6C6355",
"w  c #676159",
"e  c #6A635B",
"r  c #6F695C",
"t  c #716B5D",
"y  c #6E6860",
"u  c #726D61",
"i  c #796F63",
"p  c #757266",
"a  c #7C7366",
"s  c #767468",
"d  c #79766B",
"f  c #79776B",
"g  c #78766A",
"h  c #7A766A",
"j  c #7A766B",
"k  c #7A776B",
"l  c #79756A",
"z  c #7A776C",
"x  c #79766B",
"c  c #7D7B6B",
"v  c #7B786C",
"b  c #7B796C",
"n  c #7A786D",
"m  c #7B786D",
"M  c #7B796D",
"N  c #7B796E",
"B  c #7C796C",
"V  c #7C796D",
"C  c #7D7B6C",
"Z  c #7C7A6D",
"A  c #7D7B6D",
"S  c #7E7A6D",
"D  c #7C796E",
"F  c #7C796F",
"G  c #7C7A6E",
"H  c #7D7B6E",
"J  c #7C7A6F",
"K  c #7D7A6F",
"L  c #7D7B6F",
"P  c #7E7A6E",
"I  c #7F7B6E",
"U  c #7E7A6F",
"Y  c #7E7C6D",
"T  c #7E7C6E",
"R  c #7F7C6F",
"E  c #7F7D6F",
"W  c #7F7C6D",
"Q  c #7D7B71",
"!  c #7E7A70",
"~  c #7E7B70",
"^  c #7E7B71",
"/  c #7D7C70",
"(  c #7D7C71",
")  c #7E7C70",
"_  c #7F7D70",
"`  c #7E7C71",
"'  c #7F7C71",
"]  c #7E7D71",
"[  c #7F7D71",
"{  c #7E7C72",
"}  c #7F7C72",
"|  c #7E7D72",
" . c #7F7D72",
".. c #7F7D73",
"X. c #7F7C71",
"o. c #807D6F",
"O. c #807E6F",
"+. c #817F6F",
"@. c #807C70",
"#. c #807D70",
"$. c #807E70",
"%. c #807E71",
"&. c #807C72",
"*. c #807D72",
"=. c #807E73",
"-. c #817E73",
";. c #817E73",
":. c #838172",
">. c #828074",
",. c #838174",
"<. c #828075",
"1. c #838176",
"2. c #858276",
"3. c #838179",
"4. c #848279",
"5. c #868378",
"6. c #84827A",
"7. c #85827A",
"8. c #84837A",
"9. c #85837A",
"0. c #85837B",
"q. c #86837B",
"w. c #878579",
"e. c #86847B",
"r. c #87857E",
"t. c #86837A",
"y. c #8A877E",
"u. c #88867A",
"i. c #8A887D",
"p. c #8B887D",
"a. c #8B897E",
"s. c #8C897E",
"d. c #8C8A7E",
"f. c #8D8B7F",
"g. c #8A887C",
"h. c #8B8983",
"j. c #8C8983",
"k. c #8C8A83",
"l. c #8C8A84",
"z. c #8F8D87",
"x. c #8E8C83",
"c. c #918E84",
"v. c #93918A",
"b. c #93918B",
"n. c #95938C",
"m. c #97958D",
"M. c #98968E",
"N. c #9C9A92",
/* pixels */
"n.<.=.<.<.<.& & & & & & & . . . . . . . 3 3 3 3 8 9 3 0 0 3 0 9 8 0 8 3 3 3 3 3 3 3 y X . . . & & & & & & & & * ^ ! ^ ^ ^ h.& ",
"& & & O . . u e r p p p p p s p p s s s . . = * * * * * * * $ @ O @ * * * * * * . . . Z N f x N n n n n x n n y . X o & & %   ",
"v.z.h.h.h.k.+ e r p p p p p p p s s s y s y s s y s s s y s s s * s / f f f / Z f Z Z / f ! N N n n n n n n n . j.j.j.j.z.b.& ",
"v.6.6.| | | % r e p s p p p p p s s s s s s s s s s s s s s s s $ / f / f / f f Z g / g N N f f n n n n n n n . z a s s s n.& ",
"v.u.| | | | % e e p s p s p s s s s s s s s s s s s s s s s s s , / f / N f / f Z f N N f N N N n n n n n n n . s j a s a v.& ",
"h.| | | R | & w.6.6.6.6.3.6.6.6.3.3.3.3.3.3.8.8.3.8.8.8.r.h.r.r.1 h.g.g.e.3.8.8.8.e.3.3.8.e.3.3.8.3.3.3.3.3.3.O j s j j m v.& ",
"h.^ | ^ | =.% 8 8 9 9 w 9 9 w w 9 9 9 9 9 w 9 w w w w w w w 0 u = e e y y e e y r y 0 w 0 w w w 9 w 9 9 9 9 9 O j j z z a l.& ",
"l.^ ^ | | *.% 7 8 w w w 0 0 w w 9 9 w w w w w w w w w w w w 0 u @ y y e y y y y e w w w 0 w w w w 9 9 9 9 9 9 @ s j s z F h.% ",
"h.| ^ ^ ^ | % 8 8 9 9 9 w 9 w w w w 0 0 w w w w w w 0 w w w w u O y r y r r e 0 w w w w 9 w 0 0 w 9 9 9 0 0 0 + l l l F F h.& ",
"h.^ ^ | | ^ % X X & & & & & * & * * * * * * * * @ @ O @ . . . . . . o $ $ $ * * * * & * & * & * * * * * * * & @ l l l n m j.& ",
"h.| | ^ ^ | % 9 9 s s s s s s s p s s s s / . s s s s s s s s s s s s s s s s s p n . :.| R R R C C n n c c c % l b l F m j.& ",
"k.R ^ | &.&.# q q s s s s s p s s s s s p / * s s s s s s s s s s s s s s s s s s | * <.o.R R R C f / / c c c + l l F F B c.& ",
"k.^ ^ { { { % q 7 s s s s s s s s p s s s / * s s s s s s s s s s s s s s s s s s | & :.o.o.o.o./ / c c / c R @ l R R n n h.* ",
"h.^ | ^ { { # q q s s l s p s s s s s s s / = s s s s f s s s s s s s s s s s s s | * :.o.o.o.o./ c c / c c c @ F F n / | h.% ",
"k.| ^ | { { % i i q.7.7.7.7.7.w.8.8.8.g.g.g.1 h.g.g.8.8.8.8.8.8.e.w.e.w.7.7.q.f.d.f.4 d.f.f.k.u.g.f.g.g.d.g.d.@ R Z Z Z n h.* ",
"k.| | ^ { { # 5 5 9 w w w w w w w w w w w y > u w w e w e w w w w e w w w w w w 9 u - F t e t r r r r r r r r @ n Z Z Z F h.& ",
"h.Q } } ^ &.# 5 5 w w 0 w w w w w w w e 6 6 * t w w e w e w e w 0 e e 0 e e w e w y & | r r r r r r r r r r y # ! z ! ! @.j.& ",
"h.} } } ^ &.# 5 5 w w 0 w w e e e e 8 3 6 6 X t e w e w w e w e e e 0 e e 0 w w w u o F r r r r r r r r r r r # F F ! j @.x.& ",
"h.{ } } F z # X . * * * = * * * * * . X X X X X X . * * * * * * * * * * * * * = o X X X . & $ $ % $ $ $ $ $ # # j j j ! @.;.& ",
"z.{ } } z ^ # 7 7 r p y u y r u p t u p p p p g a a p p l R X *.+.Z Z R Z n Z f s s l s s s s s s s s s s s p # j j a a @.c.& ",
"h.} } { m o.# 7 7 y p r u y u u r u u u s s g p p p p p l o.4 o.Z R Z Z R n ! z l l x s s s x s j s s s s s p # j j j j @.j.% ",
"h.^ n ! m m # 7 7 u p y u u t u u u u u u u p p p a p p g o.4 o.Z R R Z Z R n z b l z s s s s s s s s s s s s + s z s j @.j.% ",
"k.B n F a m X 7 8 u r t u u u u u u u y u u p p a p g p g R 4 :.Z R R n R b Q F l s s s x x s s s s s s s s s o j j j s @.;.& ",
"k.F F F @.@.+ t t | | $.&.=.{ { $.$.$.$.:.+.$.$.:.2.5.5.5.f.4 f.d.k.w.e.w.w.;.h.w.q.e.e.6.6.6.6.7.7.7.7.r.r.;.X s j a j @.c.& ",
"& * * o X X 4 < < 8 8 8 3 8 8 3 8 8 8 3 8 8 3 9 8 7 8 8 8 e 4 9 9 9 9 9 9 9 9 w e w e w e w e w w w w w w w w 4 X X O & & &   ",
"N.N.m.m.M.M.o < < 8 8 6 3 8 8 8 8 3 8 8 8 8 8 3 8 8 8 6 8 r 4 9 9 9 9 9 9 9 9 y w e w e w e w e w e w w w w w o c.b.c.n.N.N.& ",
"N.g.g.u.g.u.+ 1 < 8 8 8 8 8 6 8 3 8 8 8 3 8 9 8 8 8 8 8 8 e X q 9 9 9 8 9 w w w e w e w e w X X X X X X X X X X p.;.x.;.;.N.& ",
"N.g.g.g.u.g.+ o X = & & & = & & @ $ o . o . o . X X X X X X X X . . & < & = & = o X X X X X s u u u u e r q 7 O ;.p.;.s.x.M.& ",
"N.u.g.g.g.g.+ q q j j j s s s s s s x { . x x n x x x n b x x x x x x x x x x x z x x x ^ X p u u u u q r q q + ;.x.;.x.;.N.& ",
"N.g.g.u.u.g.% q 9 j s s s s x x s s s 3.= x x x x x x n l n n x n n x x x x x x x x x x ^ & p u u u u r r 7 7 + ;.s.s.;.s.N.& ",
"m.g.u.g.g.g.% q 9 j s x x s s s s s x { = x n x x x x n x x n n n n x x x x x x x x x x &.& a u u t r r q q q + x.;.;.s.;.N.& ",
"m.w.g.u.g.g.% q e s s s s s x s x s s 3.< n n x n x x x x n x x x x n x x x x x x x n x ^ 4 &.&.&.&.o.;.;.o.o.+ ;.;.;.;.;.c.& ",
"m.g.g.w.w.g.+ a a 2.8.8.w.w.e.e.2.f.f.f.1 w.u.w.e.e.e.e.e.e.e.e.e.q.e.e.e.e.e.e.e.e.d.h.d.4 6 6 6 6 6 6 2 5 4 # =.;.;.;.;.c.& ",
"m.g.g.g.g.g.% 5 5 0 e e e w w e e e e p : u 0 e e e e e y r y y y y y y y y y e y y y y e , 6 6 8 5 6 6 5 2 < # =.;.;.7.;.c.& ",
"M.w.g.w.g.g.+ 5 5 e e 0 w e e e e e e u = y 0 e w r e e y y y y y y y y y y y r y y y y 5 * 6 6 5 8 6 6 1 5 1 + ;.;.;.7.;.c.& ",
"M.g.g.g.g.w.* 5 5 q e e e w e w e e e p X p q e e e y y y y y y y y y y y r y r y e y 5 6 X 6 8 8 6 6 5 5 5 4 @ ;.;.;.;.;.c.& ",
"m.w.g.g.g.g.* 4 5 e q 0 w w q w q r 0 u X t q q e e r r y y r r y y X X X + + % % & & & O O + $ & $ @ @ . . . # ;.;.;.;.;.c.& ",
"M.g.g.g.g.:.+ X . X O + & % % & $ * * * * * * & & & % % @ + o O O o R l g s s g p s p g g p s p s s s s s s s # ;.;.;.;.;.c.& ",
"m.g.g.g.2.2.* t t Y c :.o.o.o.c +.c +.c c c +.c c o.c c R :.c c :.X *.p s p g s s g s s s s g s s s s a s s p # ;.;.;.;.;.x.& ",
"m.g.g.w.2.2.+ r r :.c :.c c o.o.c +.c +.c c c +.R c :.c R c c :.:.4 *.g s b s s g s g s s s s s s s s s s s p @ ;.;.&.&.@.x.& ",
"m.g.w.g.w.:.+ t q :.+.+.a :.a c c +.c +.c +.+.c :.c c :.:.c :.:.2.4 | s g s s p s g s s x s s s x s s s s s j # @.@.@.@.@.c.& ",
"m.g.g.2.:.w.# t q :.:.:.:.c c :.c c +.c +.c +.+.c c :.:.c a :.:.c.4 f.d.x.e.w.8.w.w.e.e.6.8.6.e.q.;.q.q.6.6.;.# @.@.@.@.@.c.& ",
"m.g.w.w.w.w.% a o.w.2.w.w.:.:.w.w.w.w.w.w.w.w.w.:.w.f.f.f.f.f.f.c.4 s e e e e e w w e w e w w w 9 9 9 9 8 8 8 # @.@.@.@.@.c.& ",
"m.w.g.2.w.w.% 7 4 q q q t q t t r t r t t t t t t t u u u u u u B 4 p w e w 0 e w e w e w w w w 9 9 8 9 8 8 8 @ &.@.@.@.@.x.& ",
"m.w.w.:.2.2.o 7 7 q q q q r t r r t t t t t u t t p t t u u u u h , l e q 0 e e w w w w w w w w 9 9 9 9 8 9 8 o &.&.&.@.@.x.% ",
"M.w.2.5.:.w.X 7 7 q r q q t q r r t r t u u t t t t t p t t u u h X X X X X X X o X o . o . . X . . . . . . . X ;.;.&.@.@.c.& ",
"m.u.2.2.w.w.X o X X @ * = = : * * % * $ , > = : : : : * = * * X X h h h h h a p g g R 4 F s s s s s s p a s p . ;.;.&.@.@.c.& ",
"* * * + X X 7 7 7 t t t t p i i c * p p u p p p p p p c s s s s h h h h h h h g g g | 4 R s s s s s p p s s a i X X O % & &   ",
"M.M.m.m.m.m.o 7 7 t t t p p p p p & l p p p p p s s s s s g g s g g h h h s h h g g Y 1 Y g s s s p s s s s s . r.j.j.j.j.j.& ",
"N.g.g.w.w.w.+ 7 7 t u u t p p p g * l p p u p p s f s s s g g g g g h s s c h s g g c , c s s s s p p s s p p @ @.@.@.@.@.x.& ",
"m.u.5.w.g.5.+ t t &.| | 2.6.d.d.g.4 w.w.w.7.<.7.8.8.8.8.8.8.8.8.2.2.8.8.2.2.w.g.g.f.g., f.g.g.8.8.3.3.3.h.....@ i &.@.&.@.j.& ",
"m.u.w.w.5.g.+ 4 1 2 5 5 5 6 8 6 e 4 5 w w e e e e e e e e e e w q 0 0 0 0 8 0 0 8 8 s 1 s 0 w w 0 0 0 8 3 8 8 @ @.@.l l @.;.& ",
"m.u.w.w.w.u.+ 1 < 2 2 5 3 6 3 6 r & 6 5 e e e e e e e e e w e 0 0 0 8 0 8 0 8 8 0 8 p . s 0 0 0 9 9 9 8 8 3 3 @ l &.l &.s h.& ",
"m.w.w.w.w.w.+ 1 < 2 2 2 3 3 8 3 r o 5 6 6 e w e e e e e w e w 0 0 0 0 8 8 8 8 8 8 8 p . s 0 0 0 9 9 8 8 8 8 8 @ &.j &.i s h.& ",
"n.u.u.w.u.u.+ . . X X . X O o O O O O + + $ $ & $ $ @ @ $ @ O @ @ = = = * * * O o . . . . . . . . . o @ $ & $ @ &.i l l l r.$ "
};
